<mxfile host="app.diagrams.net" modified="2024-02-06T07:54:30.238Z" agent="Mozilla/5.0 (Windows NT 10.0; Win64; x64) AppleWebKit/537.36 (KHTML, like Gecko) Chrome/109.0.0.0 Safari/537.36" version="23.1.1" etag="aNQzE-hs11x2qJbvfGEe" type="github">
  <diagram name="Page-1" id="AyU8zHSex-QtuiCC-qXh">
    <mxGraphModel>
      <root>
        <mxCell id="0" />
        <mxCell id="1" parent="0" />
      </root>
    </mxGraphModel>
  </diagram>
</mxfile>
